nColumns=19
nRows=64
DataType=double
version=3
OpenSimVersion=4.1
endheader
time	ground_force_calcn_r_vx	ground_force_calcn_r_vy	ground_force_calcn_r_vz	ground_force_calcn_r_px	ground_force_calcn_r_py	ground_force_calcn_r_pz	ground_force_calcn_r_mx	ground_force_calcn_r_my	ground_force_calcn_r_mz	ground_force_calcn_l_vx	ground_force_calcn_l_vy	ground_force_calcn_l_vz	ground_force_calcn_l_px	ground_force_calcn_l_py	ground_force_calcn_l_pz	ground_force_calcn_l_mx	ground_force_calcn_l_my	ground_force_calcn_l_mz
3.54167	-15.4782	63.7551	-5.1988	1.16459	0	-0.294695	-0.684688	2.82025	-0.229973	0	0	0	0	0	0	0	0	0
3.55	-31.1434	168.698	-6.51766	1.15139	0	-0.32659	-2.55491	13.8395	-0.534689	0	0	0	0	0	0	0	0	0
3.55833	-48.1353	380.401	-1.96905	1.14555	0	-0.328778	-2.67909	21.1721	-0.109592	0	0	0	0	0	0	0	0	0
3.56667	-65.9412	698.772	14.8466	1.13994	0	-0.326729	-1.42367	15.0865	0.320537	0	0	0	0	0	0	0	0	0
3.575	-97.359	1023.79	43.5041	1.13196	0	-0.324826	0.366676	-3.85584	-0.163847	0	0	0	0	0	0	0	0	0
3.58333	-150.825	1228.05	71.3902	1.1222	0	-0.323333	2.61622	-21.3018	-1.23834	0	0	0	0	0	0	0	0	0
3.59167	-208.642	1312.17	81.3618	1.1081	0	-0.324112	3.41691	-21.4893	-1.33246	0	0	0	0	0	0	0	0	0
3.6	-240.924	1379.67	69.4573	1.08533	0	-0.328454	0.721015	-4.12896	-0.207866	0	0	0	0	0	0	0	0	0
3.60833	-229.738	1492.78	51.1527	1.05484	0	-0.33171	-2.28564	14.8515	0.508913	0	0	0	0	0	0	0	0	0
3.61667	-184.472	1636.42	44.3735	1.02268	0	-0.329981	-2.17853	19.3254	0.524031	0	0	0	0	0	0	0	0	0
3.625	-129.508	1760.11	49.6121	0.993764	0	-0.326186	-0.69017	9.37989	0.264391	0	0	0	0	0	0	0	0	0
3.63333	-76.0086	1824.01	52.8937	0.967725	0	-0.324002	0.0198776	-0.477013	-0.0138327	0	0	0	0	0	0	0	0	0
3.64167	-25.5682	1820.7	46.0073	0.942538	0	-0.323936	-0.00177289	0.126246	0.00319013	0	0	0	0	0	0	0	0	0
3.65	19.0207	1768.7	35.9397	0.917771	0	-0.323814	0.0767159	7.13366	0.144955	0	0	0	0	0	0	0	0	0
3.65833	53.9403	1687.47	32.9221	0.894111	0	-0.321948	0.352208	11.0185	0.214968	0	0	0	0	0	0	0	0	0
3.66667	81.8312	1580.18	36.717	0.871169	0	-0.319393	0.498419	9.62461	0.223637	0	0	0	0	0	0	0	0	0
3.675	108.981	1443.7	40.2121	0.847175	0	-0.318432	0.569863	7.54914	0.21027	0	0	0	0	0	0	0	0	0
3.68333	135.226	1280.7	41.9822	0.821747	0	-0.319686	0.677825	6.41955	0.210436	0	0	0	0	0	0	0	0	0
3.69167	155.803	1099.37	47.446	0.796221	0	-0.321512	0.351426	2.47973	0.107018	0	0	0	0	0	0	0	0	0
3.7	170.696	904.652	57.7238	0.76981	0	-0.322693	-1.03663	-5.49388	-0.350552	0	0	0	0	0	0	0	0	0
3.70833	181.524	699.912	64.3549	0.738364	0	-0.324335	-2.97145	-11.4572	-1.05346	0	0	0	0	0	0	0	0	0
3.71667	179.641	501.225	58.5889	0.700512	0	-0.326295	-3.31203	-9.24105	-1.0802	0	0	0	0	0	0	0	0	0
3.725	153.558	331.373	42.3021	0.662291	0	-0.323298	-0.6857	-1.47972	-0.188897	0	0	0	0	0	0	0	0	0
3.73333	109.902	204.811	25.651	0.637307	0	-0.309693	2.271	4.2322	0.53005	0	0	0	0	0	0	0	0	0
3.74167	65.9715	121.509	15.4991	0.644484	0	-0.287336	2.44763	4.50815	0.575036	0	0	0	0	0	0	0	0	0
3.75	34.2173	68.7199	10.1487	0.675879	0	-0.265263	0.738203	1.48256	0.218948	0	0	0	0	0	0	0	0	0
3.75833	16.4561	34.4643	5.24521	0.695547	0	-0.245565	-0.372413	-0.77995	-0.118703	0	0	0	0	0	0	0	0	0
3.76667	6.88527	14.3992	0.715442	-0.000609766	0	-0.00139	1.04321e-18	2.18168e-18	1.08399e-19	0	0	0	0	0	0	0	0	0
3.775	0	0	0	0	0	0	0	0	0	0	0	0	0	0	0	0	0	0
3.78333	0	0	0	0	0	0	0	0	0	0	0	0	0	0	0	0	0	0
3.79167	-1.40309	11.0285	3.31485	-0.000610001	0	-0.00139039	-1.7308e-19	1.36044e-18	4.08906e-19	0	0	0	0	0	0	0	0	0
3.8	0	0	0	0	0	0	0	0	0	0	0	0	0	0	0	0	0	0
3.80833	0	0	0	0	0	0	0	0	0	0	0	0	0	0	0	0	0	0
3.81667	0	0	0	0	0	0	0	0	0	0	0	0	0	0	0	0	0	0
3.825	0	0	0	0	0	0	0	0	0	0	0	0	0	0	0	0	0	0
3.83333	0.258261	10.5208	2.95769	-0.000609887	0	-0.00139025	6.5499e-21	2.66822e-19	7.50116e-20	0	0	0	0	0	0	0	0	0
3.84167	0.869473	10.0618	1.24362	-0.000609866	0	-0.00139023	-6.27879e-20	-7.26597e-19	-8.98064e-20	0	0	0	0	0	0	0	0	0
3.85	0	0	0	0	0	0	0	0	0	0	0	0	0	0	0	0	0	0
3.85833	0	0	0	0	0	0	0	0	0	-3.57057	18.9305	-5.05153	1.05869	0	-0.220273	0.134885	-0.715137	0.190831
3.86667	0	0	0	0	0	0	0	0	0	-11.5872	55.2483	-8.16583	1.15583	0	-0.287706	-0.0722612	0.344545	-0.0509246
3.875	0	0	0	0	0	0	0	0	0	-28.0748	153.731	-13.2394	1.18512	0	-0.310874	0.0522958	-0.28636	0.0246615
3.88333	0	0	0	0	0	0	0	0	0	-55.8394	363.869	-19.7498	1.19102	0	-0.315621	0.672883	-4.38474	0.237992
3.89167	0	0	0	0	0	0	0	0	0	-96.5823	698.206	-25.2382	1.18597	0	-0.312833	1.63981	-11.8544	0.428505
3.9	0	0	0	0	0	0	0	0	0	-150.349	1058.17	-30.6821	1.17645	0	-0.308191	2.37146	-16.6905	0.48395
3.90833	0	0	0	0	0	0	0	0	0	-208.902	1286.45	-42.7683	1.16542	0	-0.305254	1.65866	-10.2142	0.339575
3.91667	0	0	0	0	0	0	0	0	0	-253.677	1350.53	-65.1175	1.15276	0	-0.307079	-1.43682	7.64934	-0.368823
3.925	0	0	0	0	0	0	0	0	0	-273.842	1365.48	-86.7782	1.13541	0	-0.31245	-4.64235	23.1485	-1.47112
3.93333	0	0	0	0	0	0	0	0	0	-273.313	1435.57	-88.7304	1.11074	0	-0.314094	-3.92218	20.6012	-1.27333
3.94167	0	0	0	0	0	0	0	0	0	-250.894	1570.24	-67.2418	1.08067	0	-0.309988	-0.0024164	0.0151232	-0.000647616
3.95	0	0	0	0	0	0	0	0	0	-204.589	1715.24	-42.2642	1.04944	0	-0.306633	2.35906	-19.778	0.487338
3.95833	0	0	0	0	0	0	0	0	0	-145.359	1813.67	-34.7921	1.0201	0	-0.308037	1.64799	-20.5622	0.394451
3.96667	0	0	0	0	0	0	0	0	0	-89.7242	1848.98	-42.0987	0.993938	0	-0.311836	0.286595	-5.90597	0.134471
3.975	0	0	0	0	0	0	0	0	0	-46.6437	1840.17	-44.4395	0.970314	0	-0.314168	-0.117905	4.65153	-0.112333
3.98333	0	0	0	0	0	0	0	0	0	-12.5638	1807.29	-32.699	0.947601	0	-0.314054	-0.00241998	0.348111	-0.00629832
3.99167	0	0	0	0	0	0	0	0	0	21.6828	1746.98	-18.7994	0.925436	0	-0.313966	-0.123331	-9.93675	0.10693
4	0	0	0	0	0	0	0	0	0	57.4921	1648.49	-17.519	0.903539	0	-0.316014	-0.427299	-12.2521	0.130206
4.00833	0	0	0	0	0	0	0	0	0	89.8194	1518.97	-27.6232	0.881321	0	-0.318833	-0.328117	-5.54891	0.10091
4.01667	0	0	0	0	0	0	0	0	0	113.577	1373.89	-36.9103	0.859253	0	-0.319569	0.0105133	0.127175	-0.00341663
4.025	0	0	0	0	0	0	0	0	0	129.648	1215.04	-39.9347	0.83741	0	-0.317808	-0.0838874	-0.786184	0.0258394
4.03333	0	0	0	0	0	0	0	0	0	139.431	1031.3	-42.3896	0.815483	0	-0.315804	-0.401775	-2.97173	0.122147
4.04167	0	0	0	0	0	0	0	0	0	141.779	819.039	-48.985	0.792582	0	-0.315022	0.0283539	0.163797	-0.00979635
4.05	0	0	0	0	0	0	0	0	0	134.479	594.674	-54.688	0.765583	0	-0.314526	1.43628	6.35129	-0.584084
4.05833	0	0	0	0	0	0	0	0	0	117.882	391.388	-51.1181	0.73095	0	-0.312284	2.34676	7.79166	-1.01765
4.06667	0	0	0	0	0	0	0	0	0	93.8183	237.31	-37.5197	0.694815	0	-0.309527	0.871864	2.20534	-0.348675
